<svg width="93" height="111" viewBox="0 0 93 111" fill="none" xmlns="http://www.w3.org/2000/svg">
<g clip-path="url(#clip0_358_736)">
<path d="M52.9976 86.2333C76.6393 86.2333 95.8046 66.9293 95.8046 43.1166C95.8046 19.304 76.6393 0 52.9976 0C29.3559 0 10.1906 19.304 10.1906 43.1166C10.1906 66.9293 29.3559 86.2333 52.9976 86.2333Z" fill="black"/>
<path d="M48.9223 85.3318H57.0777C84.0779 85.3318 106 107.412 106 134.608V192.098H0V134.608C0 107.412 21.9221 85.3318 48.9223 85.3318Z" fill="black"/>
<path d="M19.804 37.3991L20.4232 36.7754C27.1412 30.0088 38.0519 30.0088 44.77 36.7754C47.3575 39.3817 47.3575 43.6117 44.77 46.218L44.1507 46.8417C37.4327 53.6083 26.522 53.6083 19.804 46.8417C17.2164 44.2354 17.2164 40.0054 19.804 37.3991Z" fill="white"/>
<path d="M28.6196 52.2821C33.7613 52.2821 37.9295 48.0838 37.9295 42.9048C37.9295 37.7259 33.7613 33.5276 28.6196 33.5276C23.4779 33.5276 19.3097 37.7259 19.3097 42.9048C19.3097 48.0838 23.4779 52.2821 28.6196 52.2821Z" fill="black"/>
<path d="M61.2304 37.3954L61.8496 36.7717C68.5676 30.0051 79.4783 30.0051 86.1964 36.7717C88.7839 39.378 88.7839 43.608 86.1963 46.2143L85.5771 46.838C78.8591 53.6046 67.9484 53.6046 61.2304 46.838C58.6428 44.2317 58.6428 40.0017 61.2304 37.3954Z" fill="white"/>
<path d="M69.7877 52.2821C74.9294 52.2821 79.0976 48.0838 79.0976 42.9048C79.0976 37.7259 74.9294 33.5276 69.7877 33.5276C64.646 33.5276 60.4778 37.7259 60.4778 42.9048C60.4778 48.0838 64.646 52.2821 69.7877 52.2821Z" fill="black"/>
<path d="M18.9133 90.5991C28.2241 90.5991 35.772 82.9966 35.772 73.6185C35.772 64.2404 28.2241 56.6379 18.9133 56.6379C9.60255 56.6379 2.05469 64.2404 2.05469 73.6185C2.05469 82.9966 9.60255 90.5991 18.9133 90.5991Z" fill="black"/>
<path d="M88.7059 90.5991C98.0167 90.5991 105.565 82.9966 105.565 73.6185C105.565 64.2404 98.0167 56.6379 88.7059 56.6379C79.3952 56.6379 71.8473 64.2404 71.8473 73.6185C71.8473 82.9966 79.3952 90.5991 88.7059 90.5991Z" fill="black"/>
<path d="M42.4303 68.4149C43.5066 64.3151 48.5994 62.1125 53.8096 63.4972" stroke="#474747" stroke-width="2" stroke-miterlimit="10"/>
</g>
<defs>
<clipPath id="clip0_358_736">
<rect width="106" height="193" fill="white"/>
</clipPath>
</defs>
</svg>
