<svg width="110" height="115" viewBox="0 0 110 115" fill="none" xmlns="http://www.w3.org/2000/svg">
<g clip-path="url(#clip0_358_749)">
<path d="M70.402 91.5264C92.9733 91.5264 111.271 73.1794 111.271 50.5472C111.271 27.9151 92.9733 9.56812 70.402 9.56812C47.8307 9.56812 29.5331 27.9151 29.5331 50.5472C29.5331 73.1794 47.8307 91.5264 70.402 91.5264Z" fill="black"/>
<path d="M66.5066 89.5264H74.2928C100.071 89.5264 121 110.512 121 136.36V191H19.7993V136.36C19.7993 110.512 40.7289 89.5264 66.5066 89.5264Z" fill="black"/>
<path d="M38.7102 45.1107L39.3013 44.5179C45.7152 38.0867 56.1319 38.0867 62.5458 44.5179C65.0162 46.995 65.0162 51.0153 62.5458 53.4924L61.9546 54.0851C55.5407 60.5163 45.124 60.5163 38.7102 54.0851C36.2397 51.608 36.2397 47.5877 38.7102 45.1107Z" fill="white"/>
<path d="M50.6261 59.2581C55.535 59.2581 59.5145 55.2679 59.5145 50.3457C59.5145 45.4236 55.535 41.4333 50.6261 41.4333C45.7171 41.4333 41.7377 45.4236 41.7377 50.3457C41.7377 55.2679 45.7171 59.2581 50.6261 59.2581Z" fill="black"/>
<path d="M78.2575 45.1104L78.8487 44.5176C85.2626 38.0865 95.6793 38.0865 102.093 44.5176C104.564 46.9947 104.564 51.015 102.093 53.4921L101.502 54.0849C95.0881 60.516 84.6714 60.516 78.2575 54.0849C75.7871 51.6078 75.7871 47.5875 78.2575 45.1104Z" fill="white"/>
<path d="M90.1778 59.2581C95.0868 59.2581 99.0662 55.2679 99.0662 50.3457C99.0662 45.4236 95.0868 41.4333 90.1778 41.4333C85.2689 41.4333 81.2894 45.4236 81.2894 50.3457C81.2894 55.2679 85.2689 59.2581 90.1778 59.2581Z" fill="black"/>
<path d="M60.3085 74.5913C61.336 70.6948 66.1983 68.6013 71.1726 69.9173" stroke="#777777" stroke-width="2" stroke-miterlimit="10"/>
<path d="M103.457 38.7031H0V42.5622H103.457V38.7031Z" fill="black"/>
<path d="M27.7301 42.5621C27.7301 19.0565 46.7353 0 70.1777 0C93.6201 0 112.625 19.0565 112.625 42.5621" fill="black"/>
</g>
<defs>
<clipPath id="clip0_358_749">
<rect width="121" height="193" fill="white"/>
</clipPath>
</defs>
</svg>
