<svg width="94" height="112" viewBox="0 0 94 112" fill="none" xmlns="http://www.w3.org/2000/svg">
<path d="M95.8046 43.1167H10.1906V74.5894H95.8046V43.1167Z" fill="black"/>
<path d="M52.9976 86.2333C76.6393 86.2333 95.8046 66.9293 95.8046 43.1167C95.8046 19.304 76.6393 0 52.9976 0C29.3559 0 10.1906 19.304 10.1906 43.1167C10.1906 66.9293 29.3559 86.2333 52.9976 86.2333Z" fill="black"/>
<path d="M48.9223 85.2334H57.0777C84.0779 85.2334 106 107.314 106 134.51V192H0V134.51C0 107.314 21.9221 85.2334 48.9223 85.2334Z" fill="black"/>
<path d="M19.804 37.3991L20.4232 36.7754C27.1412 30.0088 38.0519 30.0088 44.77 36.7754C47.3575 39.3817 47.3575 43.6117 44.77 46.218L44.1507 46.8417C37.4327 53.6083 26.522 53.6083 19.804 46.8417C17.2164 44.2354 17.2164 40.0054 19.804 37.3991Z" fill="white"/>
<path d="M32.2887 53.7062C37.4304 53.7062 41.5986 49.5078 41.5986 44.3289C41.5986 39.15 37.4304 34.9517 32.2887 34.9517C27.147 34.9517 22.9788 39.15 22.9788 44.3289C22.9788 49.5078 27.147 53.7062 32.2887 53.7062Z" fill="black"/>
<path d="M61.2304 37.3954L61.8496 36.7717C68.5676 30.0051 79.4783 30.0051 86.1963 36.7717C88.7839 39.378 88.7839 43.608 86.1963 46.2143L85.5771 46.838C78.8591 53.6046 67.9484 53.6046 61.2304 46.838C58.6428 44.2317 58.6428 40.0017 61.2304 37.3954Z" fill="white"/>
<path d="M74.6604 53.7062C79.8021 53.7062 83.9703 49.5078 83.9703 44.3289C83.9703 39.15 79.8021 34.9517 74.6604 34.9517C69.5187 34.9517 65.3505 39.15 65.3505 44.3289C65.3505 49.5078 69.5187 53.7062 74.6604 53.7062Z" fill="black"/>
<path d="M42.4303 68.4149C43.5066 64.3151 48.5994 62.1125 53.8096 63.4972" stroke="#777777" stroke-width="2" stroke-miterlimit="10"/>
</svg>
