<svg width="91" height="118" viewBox="0 0 91 118" fill="none" xmlns="http://www.w3.org/2000/svg">
<path d="M50.9977 86.8581C73.7472 86.8581 92.1894 68.3894 92.1894 45.6071C92.1894 22.8249 73.7472 4.3562 50.9977 4.3562C28.2482 4.3562 9.80603 22.8249 9.80603 45.6071C9.80603 68.3894 28.2482 86.8581 50.9977 86.8581Z" fill="black"/>
<path d="M47.0762 84.8579H54.9238C80.9052 84.8579 102 105.983 102 132.002V187.005H0V132.002C0 105.983 21.0948 84.8579 47.0762 84.8579Z" fill="black"/>
<path d="M19.0584 40.1339L19.6542 39.5372C26.1187 33.0634 36.6177 33.0634 43.0822 39.5372C45.5722 42.0307 45.5722 46.0777 43.0822 48.5712L42.4864 49.1679C36.0219 55.6417 25.5229 55.6417 19.0584 49.1679C16.5684 46.6744 16.5684 42.6274 19.0584 40.1339Z" fill="white"/>
<path d="M31.603 53.3712C36.5507 53.3712 40.5616 49.3545 40.5616 44.3997C40.5616 39.4449 36.5507 35.4282 31.603 35.4282C26.6553 35.4282 22.6444 39.4449 22.6444 44.3997C22.6444 49.3545 26.6553 53.3712 31.603 53.3712Z" fill="black"/>
<path d="M58.9215 40.1349L59.5174 39.5381C65.9819 33.0643 76.4809 33.0643 82.9454 39.5381C85.4353 42.0317 85.4353 46.0786 82.9454 48.5721L82.3495 49.1689C75.885 55.6427 65.386 55.6427 58.9215 49.1689C56.4316 46.6753 56.4316 42.6284 58.9215 40.1349Z" fill="white"/>
<path d="M71.2176 53.3712C76.1653 53.3712 80.1762 49.3545 80.1762 44.3997C80.1762 39.4449 76.1653 35.4282 71.2176 35.4282C66.2699 35.4282 62.259 39.4449 62.259 44.3997C62.259 49.3545 66.2699 53.3712 71.2176 53.3712Z" fill="black"/>
<path d="M40.8292 69.8107C41.8649 65.8883 46.7655 63.781 51.7791 65.1057" stroke="#777777" stroke-width="2" stroke-miterlimit="10"/>
<path d="M27.9632 13.9357C20.1862 13.9357 13.8592 7.73632 13.6285 0C12.0185 2.34305 11.0723 5.1764 11.0723 8.23604C11.0723 16.2599 17.5688 22.7658 25.5811 22.7658C33.5935 22.7658 40.09 16.2599 40.09 8.23604C40.09 7.91547 40.0759 7.5996 40.0571 7.28374C37.5103 11.2815 33.0474 13.9357 27.9585 13.9357H27.9632Z" fill="black"/>
</svg>
