<svg width="112" height="109" viewBox="0 0 112 109" fill="none" xmlns="http://www.w3.org/2000/svg">
<g clip-path="url(#clip0_358_811)">
<path d="M55.9372 9.75195L9.50269 43.6182L27.2394 98.4167H84.6371L102.372 43.6182L55.9372 9.75195Z" stroke="white" stroke-width="4" stroke-miterlimit="10"/>
<path d="M55.9373 9.72095V59.4268" stroke="white" stroke-width="4" stroke-miterlimit="10"/>
<path d="M102.372 43.5208L55.9373 59.4267" stroke="#01A9FF" stroke-width="4" stroke-miterlimit="10"/>
<path d="M10.1636 43.7419L55.9372 59.4268" stroke="white" stroke-width="4" stroke-miterlimit="10"/>
<path d="M27.55 99.4139L55.9372 59.4268" stroke="white" stroke-width="4" stroke-miterlimit="10"/>
<path d="M84.9874 99.4139L55.9373 59.4268" stroke="white" stroke-width="4" stroke-miterlimit="10"/>
<path d="M84.9388 109C90.2491 109 94.554 104.679 94.554 99.3477C94.554 94.0168 90.2491 89.6953 84.9388 89.6953C79.6286 89.6953 75.3237 94.0168 75.3237 99.3477C75.3237 104.679 79.6286 109 84.9388 109Z" fill="white"/>
<path d="M27.5016 109C32.8119 109 37.1167 104.679 37.1167 99.3477C37.1167 94.0168 32.8119 89.6953 27.5016 89.6953C22.1913 89.6953 17.8865 94.0168 17.8865 99.3477C17.8865 104.679 22.1913 109 27.5016 109Z" fill="white"/>
<path d="M10.1151 53.3282C15.4254 53.3282 19.7302 49.0067 19.7302 43.6758C19.7302 38.345 15.4254 34.0234 10.1151 34.0234C4.80483 34.0234 0.5 38.345 0.5 43.6758C0.5 49.0067 4.80483 53.3282 10.1151 53.3282Z" fill="white"/>
<path d="M55.891 19.3048C61.2013 19.3048 65.5061 14.9832 65.5061 9.65238C65.5061 4.32152 61.2013 0 55.891 0C50.5807 0 46.2759 4.32152 46.2759 9.65238C46.2759 14.9832 50.5807 19.3048 55.891 19.3048Z" fill="white"/>
<path d="M55.891 69.0128C61.2013 69.0128 65.5061 64.6912 65.5061 59.3604C65.5061 54.0295 61.2013 49.708 55.891 49.708C50.5807 49.708 46.2759 54.0295 46.2759 59.3604C46.2759 64.6912 50.5807 69.0128 55.891 69.0128Z" fill="#01A9FF"/>
<path d="M101.885 53.3282C107.195 53.3282 111.5 49.0067 111.5 43.6758C111.5 38.345 107.195 34.0234 101.885 34.0234C96.5746 34.0234 92.2698 38.345 92.2698 43.6758C92.2698 49.0067 96.5746 53.3282 101.885 53.3282Z" fill="#01A9FF"/>
</g>
<defs>
<clipPath id="clip0_358_811">
<rect width="111" height="109" fill="white" transform="translate(0.5)"/>
</clipPath>
</defs>
</svg>
