<svg width="110" height="110" viewBox="0 0 110 110" fill="none" xmlns="http://www.w3.org/2000/svg">
<g clip-path="url(#clip0_358_792)">
<path d="M51.0861 110C79.3002 110 102.172 87.1239 102.172 58.9048C102.172 30.6857 79.3002 7.80957 51.0861 7.80957C22.872 7.80957 0 30.6857 0 58.9048C0 87.1239 22.872 110 51.0861 110Z" fill="white"/>
<path d="M102.173 58.8651C102.173 45.1994 96.8085 32.7867 88.0732 23.6182C88.0071 23.5477 87.9367 23.4795 87.8706 23.409C87.6592 23.1888 87.4478 22.9707 87.232 22.7549C77.2218 12.7517 64.0936 7.7721 50.9785 7.80954V58.9092L87.133 95.0701C96.4231 85.8179 102.175 73.0132 102.175 58.8629L102.173 58.8651Z" fill="#EEEEEE"/>
<path d="M93.7511 18.2555C93.6732 18.1752 93.5952 18.0949 93.5173 18.0147C93.2727 17.7609 93.0281 17.5071 92.7814 17.2598C81.2424 5.70717 66.1147 -0.0431385 51 0.000243628V59H110C110 58.9848 110 58.9696 110 58.9523C110 43.172 103.818 28.8407 93.7511 18.2533V18.2555Z" fill="#01A9FF"/>
</g>
<defs>
<clipPath id="clip0_358_792">
<rect width="110" height="110" fill="white"/>
</clipPath>
</defs>
</svg>
