<svg width="1380" height="1380" viewBox="0 0 1380 1380" fill="none" xmlns="http://www.w3.org/2000/svg">
<g clip-path="url(#clip0_377_3997)">
<path d="M671.785 1186.92L564.035 1226.55C408.205 1283.86 244.085 1164.62 250.435 998.715L254.825 883.984C255.305 871.464 251.315 859.185 243.565 849.335L172.575 759.104C69.9151 628.604 132.605 435.675 292.365 390.445L402.835 359.175C414.885 355.765 425.335 348.175 432.305 337.765L496.185 242.365C588.565 104.405 791.435 104.405 883.815 242.365L947.695 337.765C954.665 348.175 965.115 355.765 977.165 359.175L1087.64 390.445C1247.4 435.675 1310.09 628.604 1207.42 759.104L1136.43 849.335C1128.68 859.185 1124.69 871.464 1125.17 883.984L1129.56 998.715C1135.91 1164.63 971.785 1283.87 815.955 1226.55L708.205 1186.92C696.445 1182.6 683.535 1182.6 671.775 1186.92H671.785Z" fill="#FF8AE6"/>
<path d="M501.295 851.485C573.308 851.485 631.685 774.303 631.685 679.095C631.685 583.886 573.308 506.705 501.295 506.705C429.283 506.705 370.905 583.886 370.905 679.095C370.905 774.303 429.283 851.485 501.295 851.485Z" fill="white"/>
<path d="M453.265 770.555C498.204 770.555 534.635 729.607 534.635 679.095C534.635 628.583 498.204 587.635 453.265 587.635C408.325 587.635 371.895 628.583 371.895 679.095C371.895 729.607 408.325 770.555 453.265 770.555Z" fill="black"/>
<path d="M878.704 851.485C950.717 851.485 1009.09 774.303 1009.09 679.095C1009.09 583.886 950.717 506.705 878.704 506.705C806.692 506.705 748.314 583.886 748.314 679.095C748.314 774.303 806.692 851.485 878.704 851.485Z" fill="white"/>
<path d="M830.684 770.555C875.624 770.555 912.054 729.607 912.054 679.095C912.054 628.583 875.624 587.635 830.684 587.635C785.745 587.635 749.314 628.583 749.314 679.095C749.314 729.607 785.745 770.555 830.684 770.555Z" fill="black"/>
</g>
<defs>
<clipPath id="clip0_377_3997">
<rect width="1134.99" height="1102.23" fill="white" transform="translate(122.505 138.885)"/>
</clipPath>
</defs>
</svg>
