<svg width="1380" height="1380" viewBox="0 0 1380 1380" fill="none" xmlns="http://www.w3.org/2000/svg">
<g clip-path="url(#clip0_377_3994)">
<path fill-rule="evenodd" clip-rule="evenodd" d="M527.716 522.058C512.01 392.091 401.329 291.38 267.125 291.38C122.15 291.38 4.625 408.905 4.625 553.88C4.625 748.469 126.783 888.488 248.882 967.095C373.745 1047.48 530.426 1088.62 689.995 1088.62C849.56 1088.62 1006.24 1047.49 1131.11 967.101C1253.21 888.491 1375.36 748.471 1375.36 553.88C1375.36 408.905 1257.84 291.38 1112.86 291.38C978.66 291.38 867.977 392.093 852.274 522.063C850.723 523.159 848.946 524.363 846.917 525.669C818.735 543.812 763.98 563.62 689.995 563.62C616.015 563.62 561.26 543.812 533.075 525.667C531.045 524.36 529.267 523.156 527.716 522.058ZM861.617 514.177C861.68 514.189 861.292 514.706 860.264 515.691C861.041 514.658 861.555 514.165 861.617 514.177ZM519.726 515.687C518.697 514.701 518.309 514.184 518.372 514.171C518.435 514.159 518.949 514.653 519.726 515.687Z" fill="#FFE253"/>
<path d="M512.035 695.98C584.047 695.98 642.424 618.798 642.424 523.59C642.424 428.381 584.047 351.2 512.035 351.2C440.022 351.2 381.645 428.381 381.645 523.59C381.645 618.798 440.022 695.98 512.035 695.98Z" fill="white"/>
<path d="M464.015 615.05C508.954 615.05 545.385 574.102 545.385 523.59C545.385 473.078 508.954 432.13 464.015 432.13C419.075 432.13 382.645 473.078 382.645 523.59C382.645 574.102 419.075 615.05 464.015 615.05Z" fill="black"/>
<path d="M889.454 695.98C961.467 695.98 1019.84 618.798 1019.84 523.59C1019.84 428.381 961.467 351.2 889.454 351.2C817.442 351.2 759.064 428.381 759.064 523.59C759.064 618.798 817.442 695.98 889.454 695.98Z" fill="white"/>
<path d="M841.425 615.05C886.364 615.05 922.795 574.102 922.795 523.59C922.795 473.078 886.364 432.13 841.425 432.13C796.485 432.13 760.055 473.078 760.055 523.59C760.055 574.102 796.485 615.05 841.425 615.05Z" fill="black"/>
</g>
<defs>
<clipPath id="clip0_377_3994">
<rect width="1370.73" height="797.24" fill="white" transform="translate(4.63477 291.38)"/>
</clipPath>
</defs>
</svg>
