<svg width="1380" height="1380" viewBox="0 0 1380 1380" fill="none" xmlns="http://www.w3.org/2000/svg">
<g clip-path="url(#clip0_377_3995)">
<path d="M301.05 495.525C408.45 602.935 408.45 777.065 301.05 884.475C193.65 991.885 193.65 1166.01 301.05 1273.42C408.45 1380.83 582.59 1380.83 690 1273.42L1078.95 884.475C1186.35 777.075 1186.35 602.935 1078.95 495.525L690 106.575C582.6 -0.825096 408.46 -0.825096 301.05 106.575C193.65 213.985 193.65 388.115 301.05 495.525Z" fill="#A769FF"/>
<path d="M557.56 818.485C629.572 818.485 687.95 741.303 687.95 646.095C687.95 550.887 629.572 473.705 557.56 473.705C485.548 473.705 427.17 550.887 427.17 646.095C427.17 741.303 485.548 818.485 557.56 818.485Z" fill="white"/>
<path d="M509.54 737.555C554.479 737.555 590.91 696.607 590.91 646.095C590.91 595.583 554.479 554.635 509.54 554.635C464.601 554.635 428.17 595.583 428.17 646.095C428.17 696.607 464.601 737.555 509.54 737.555Z" fill="black"/>
<path d="M934.97 818.485C1006.98 818.485 1065.36 741.303 1065.36 646.095C1065.36 550.887 1006.98 473.705 934.97 473.705C862.958 473.705 804.58 550.887 804.58 646.095C804.58 741.303 862.958 818.485 934.97 818.485Z" fill="white"/>
<path d="M886.95 737.555C931.889 737.555 968.32 696.607 968.32 646.095C968.32 595.583 931.889 554.635 886.95 554.635C842.011 554.635 805.58 595.583 805.58 646.095C805.58 696.607 842.011 737.555 886.95 737.555Z" fill="black"/>
</g>
<defs>
<clipPath id="clip0_377_3995">
<rect width="939" height="1327.95" fill="white" transform="translate(220.5 26.0249)"/>
</clipPath>
</defs>
</svg>
