<svg width="1380" height="1380" viewBox="0 0 1380 1380" fill="none" xmlns="http://www.w3.org/2000/svg">
<g clip-path="url(#clip0_377_3998)">
<path d="M569.755 1146.49L556.245 1101.64L518.955 1129.98C419.885 1205.28 283.395 1106.11 324.395 988.635L339.825 944.415L292.995 945.425C168.585 948.115 116.455 787.665 218.685 716.705L257.165 689.995L218.685 663.285C116.455 592.335 168.595 431.885 292.995 434.565L339.825 435.575L324.395 391.355C283.395 273.865 419.885 174.705 518.955 250.005L556.245 278.345L569.755 233.495C605.645 114.345 774.355 114.345 810.245 233.495L823.755 278.345L861.045 250.005C960.115 174.705 1096.61 273.875 1055.61 391.355L1040.18 435.575L1087.01 434.565C1211.42 431.875 1263.55 592.325 1161.32 663.285L1122.84 689.995L1161.32 716.705C1263.55 787.655 1211.41 948.105 1087.01 945.425L1040.18 944.415L1055.61 988.635C1096.61 1106.12 960.115 1205.28 861.045 1129.98L823.755 1101.64L810.245 1146.49C774.355 1265.64 605.645 1265.64 569.755 1146.49Z" fill="#FF8110"/>
<path d="M501.295 818.485C573.308 818.485 631.685 741.303 631.685 646.095C631.685 550.887 573.308 473.705 501.295 473.705C429.283 473.705 370.905 550.887 370.905 646.095C370.905 741.303 429.283 818.485 501.295 818.485Z" fill="white"/>
<path d="M453.266 737.555C498.205 737.555 534.635 696.607 534.635 646.095C534.635 595.583 498.205 554.635 453.266 554.635C408.326 554.635 371.896 595.583 371.896 646.095C371.896 696.607 408.326 737.555 453.266 737.555Z" fill="black"/>
<path d="M878.705 818.485C950.718 818.485 1009.1 741.303 1009.1 646.095C1009.1 550.887 950.718 473.705 878.705 473.705C806.693 473.705 748.315 550.887 748.315 646.095C748.315 741.303 806.693 818.485 878.705 818.485Z" fill="white"/>
<path d="M830.685 737.555C875.625 737.555 912.055 696.607 912.055 646.095C912.055 595.583 875.625 554.635 830.685 554.635C785.746 554.635 749.315 595.583 749.315 646.095C749.315 696.607 785.746 737.555 830.685 737.555Z" fill="black"/>
</g>
<defs>
<clipPath id="clip0_377_3998">
<rect width="1051.09" height="1091.71" fill="white" transform="translate(164.455 144.145)"/>
</clipPath>
</defs>
</svg>
