<svg width="1380" height="1380" viewBox="0 0 1380 1380" fill="none" xmlns="http://www.w3.org/2000/svg">
<g clip-path="url(#clip0_377_3999)">
<path d="M296.85 230.34H1081.53C1119.13 230.34 1149.65 260.86 1149.65 298.46V1083.14C1149.65 1119.85 1119.85 1149.65 1083.14 1149.65H296.85C260.14 1149.65 230.34 1119.85 230.34 1083.14V296.85C230.34 260.14 260.14 230.34 296.85 230.34Z" fill="#FF5870"/>
<path d="M501.289 818.49C573.302 818.49 631.679 741.308 631.679 646.1C631.679 550.892 573.302 473.71 501.289 473.71C429.277 473.71 370.899 550.892 370.899 646.1C370.899 741.308 429.277 818.49 501.289 818.49Z" fill="white"/>
<path d="M453.269 737.56C498.209 737.56 534.639 696.612 534.639 646.1C534.639 595.588 498.209 554.64 453.269 554.64C408.33 554.64 371.899 595.588 371.899 646.1C371.899 696.612 408.33 737.56 453.269 737.56Z" fill="black"/>
<path d="M878.71 818.49C950.723 818.49 1009.1 741.308 1009.1 646.1C1009.1 550.892 950.723 473.71 878.71 473.71C806.698 473.71 748.32 550.892 748.32 646.1C748.32 741.308 806.698 818.49 878.71 818.49Z" fill="white"/>
<path d="M830.68 737.56C875.619 737.56 912.05 696.612 912.05 646.1C912.05 595.588 875.619 554.64 830.68 554.64C785.74 554.64 749.31 595.588 749.31 646.1C749.31 696.612 785.74 737.56 830.68 737.56Z" fill="black"/>
</g>
<defs>
<clipPath id="clip0_377_3999">
<rect width="919.32" height="919.32" fill="white" transform="translate(230.34 230.34)"/>
</clipPath>
</defs>
</svg>
