<svg width="1380" height="1380" viewBox="0 0 1380 1380" fill="none" xmlns="http://www.w3.org/2000/svg">
<g clip-path="url(#clip0_377_4000)">
<path d="M623.525 256.23L130.325 1040.11C97.4147 1092.41 135.005 1160.48 196.805 1160.48H1183.2C1244.99 1160.48 1282.59 1092.42 1249.68 1040.11L756.475 256.23C725.675 207.28 654.325 207.28 623.525 256.23Z" fill="#8DFF72"/>
<path d="M489.145 1093.16C561.157 1093.16 619.535 1015.98 619.535 920.77C619.535 825.562 561.157 748.38 489.145 748.38C417.132 748.38 358.755 825.562 358.755 920.77C358.755 1015.98 417.132 1093.16 489.145 1093.16Z" fill="white"/>
<path d="M441.125 1012.23C486.064 1012.23 522.495 971.282 522.495 920.77C522.495 870.258 486.064 829.31 441.125 829.31C396.185 829.31 359.755 870.258 359.755 920.77C359.755 971.282 396.185 1012.23 441.125 1012.23Z" fill="black"/>
<path d="M866.565 1093.16C938.577 1093.16 996.955 1015.98 996.955 920.77C996.955 825.562 938.577 748.38 866.565 748.38C794.552 748.38 736.175 825.562 736.175 920.77C736.175 1015.98 794.552 1093.16 866.565 1093.16Z" fill="white"/>
<path d="M818.535 1012.23C863.474 1012.23 899.905 971.282 899.905 920.77C899.905 870.258 863.474 829.31 818.535 829.31C773.596 829.31 737.165 870.258 737.165 920.77C737.165 971.282 773.596 1012.23 818.535 1012.23Z" fill="black"/>
</g>
<defs>
<clipPath id="clip0_377_4000">
<rect width="1143.73" height="940.96" fill="white" transform="translate(118.135 219.52)"/>
</clipPath>
</defs>
</svg>
